<?xml version="1.0" encoding="utf-8"?>
<!-- Generator: Adobe Illustrator 18.0.0, SVG Export Plug-In . SVG Version: 6.00 Build 0)  -->
<!DOCTYPE svg PUBLIC "-//W3C//DTD SVG 1.1//EN" "http://www.w3.org/Graphics/SVG/1.1/DTD/svg11.dtd">
<svg version="1.1" id="Calque_1" xmlns="http://www.w3.org/2000/svg" xmlns:xlink="http://www.w3.org/1999/xlink" x="0px" y="0px"
	 viewBox="0 0 566.9 425.2" enable-background="new 0 0 566.9 425.2" xml:space="preserve">
<g>
	<g>
		<g>
			<linearGradient id="SVGID_1_" gradientUnits="userSpaceOnUse" x1="196.9385" y1="82.0667" x2="282.3496" y2="82.0667">
				<stop  offset="0.1122" style="stop-color:#FDCE1E"/>
				<stop  offset="0.3319" style="stop-color:#F7E6A4"/>
				<stop  offset="0.5563" style="stop-color:#C9961A"/>
				<stop  offset="0.7856" style="stop-color:#EACE76"/>
				<stop  offset="1" style="stop-color:#F7E6A4"/>
			</linearGradient>
			<path fill="url(#SVGID_1_)" d="M251.5,77.7c-4.7-3.6-9.9-5.7-15.5-6.8c-5.8-1.2-11.7-1.9-17.5-2.7c-7.7-1-14.9-3.3-20.8-8.6
				c-0.4-0.4-0.6-0.9-0.8-1.6c9.6,7,20.9,6.5,32.3,7.7c-1.6-12.7,7.1-21.2,12.2-31.2c-0.3,1.6-0.3,3.2-0.9,4.7
				c-1.5,3.9-3.3,7.7-4.9,11.6c-1.7,4.2-3.4,8.4-5,12.6c-0.6,1.7-0.4,2.8,1.8,3.2c7.2,1.6,13.7,4.8,19.4,9.9
				c5.3-8.7,10.4-17.2,15.9-26.3c-4.5-1.8-8.6-3.6-12.8-5.2c-4.4-1.7-8.2-4.2-11.2-7.9c-0.7-0.8-1.2-1.8-1.6-3
				c7.5,6.9,18.6,7.5,26.3,15.4c4.5-10.2,8.9-20.1,13.3-30c0.2,0.1,0.4,0.1,0.6,0.2c-2.9,7.9-5.3,16.1-9,23.7
				C268,54.7,261.7,65.5,256,76.4c-6.2,11.8-10.9,24.2-12.1,37.7c-1,11.8,1.9,22.1,11.6,29.8c-0.2,0.2-0.3,0.4-0.5,0.6
				c-2.2-1.9-4.7-3.5-6.6-5.7c-6.3-7-8-15.5-7.7-24.6c0.5-11.9,4.5-22.8,9.4-33.4C250.5,79.7,251,78.8,251.5,77.7z"/>
			<linearGradient id="SVGID_2_" gradientUnits="userSpaceOnUse" x1="173.3557" y1="177.3614" x2="283.0935" y2="177.3614">
				<stop  offset="0.1122" style="stop-color:#FDCE1E"/>
				<stop  offset="0.3319" style="stop-color:#F7E6A4"/>
				<stop  offset="0.5563" style="stop-color:#C9961A"/>
				<stop  offset="0.7856" style="stop-color:#EACE76"/>
				<stop  offset="1" style="stop-color:#F7E6A4"/>
			</linearGradient>
			<path fill="url(#SVGID_2_)" d="M281.8,200c-2.7-5.8-6.8-10.4-11.8-14.3c-7.8-6.2-12.2-13.8-10.6-24.1c0.5-3.1,1.5-6.1,2.4-9.1
				l-0.6-0.6c-0.4,0.7-0.6,1.4-1.1,1.9c-6,6.3-12.9,11.2-21.4,13.7c-11.8,3.4-23,1.5-34-3.3c-8.3-3.6-16.5-7.2-24.8-10.7
				c-2.1-0.9-4.4-1.4-6.6-2.1c10.2,5.5,20.5,10.9,31,15.6c5,2.2,10.5,3.5,16,4.5c4,0.7,8.3,0.2,12.8,0.2c-1.2,8.8,5.1,15.6,5.3,23.9
				c4.2-1,8.1-2.1,12-2.8c5.5-1,10.7-2.4,14.5-7c7.2,4.7,13.4,10.2,18.2,17.5C282.7,202.2,282.3,201.1,281.8,200z M254.6,188.9
				c-5.2,1.2-10.6,2-14.6,5.5c-0.7-3.9-1.2-7.8-2.2-11.6c-0.9-3.3-2.3-6.4-3.5-9.6c-0.4-1.2-0.2-1.9,1.2-2.2
				c8.5-2,15.5-6.4,21.6-12.7c0.2-0.2,0.4-0.3,1.2-0.9c-4.2,10.8-2.1,19.8,6.5,28.2C260.9,186.9,257.8,188.1,254.6,188.9z"/>
			<linearGradient id="SVGID_3_" gradientUnits="userSpaceOnUse" x1="170.621" y1="105.7879" x2="259.0015" y2="105.7879">
				<stop  offset="0.1122" style="stop-color:#FDCE1E"/>
				<stop  offset="0.3319" style="stop-color:#F7E6A4"/>
				<stop  offset="0.5563" style="stop-color:#C9961A"/>
				<stop  offset="0.7856" style="stop-color:#EACE76"/>
				<stop  offset="1" style="stop-color:#F7E6A4"/>
			</linearGradient>
			<path fill="url(#SVGID_3_)" d="M207.6,123.4c-1.1-2.7-2.2-5.3-3.2-8.1c-2.3-6.3-3.5-12.9-3.2-20c-10.4,2.7-19.7,8.3-30.5,8.1
				c0.1-0.3,0.1-0.6,0.2-0.6c9.5-3,18.6-7.5,28.8-8.2c1.9-0.1,1.7-1.4,1.6-2.6c-0.9-8.8-1.8-17.5-2.7-26.3c-0.2-1.5-0.5-3-0.8-4.5
				c0.3-0.1,0.5-0.1,0.8-0.2c1.4,6.1,3.1,12.2,4.2,18.4c0.8,5,1.2,10,1.3,15.1c0.6,25.6,16,45.8,40.5,52.9c4.7,1.3,9.5,2,14.5,3.1
				c-10,0.4-19.3-1.5-28.1-5.8c-9.1-4.5-16.3-11-21.7-19.5C208.8,124.4,208.1,123.9,207.6,123.4L207.6,123.4z"/>
			<linearGradient id="SVGID_4_" gradientUnits="userSpaceOnUse" x1="169.5722" y1="127.9216" x2="207.5867" y2="127.9216">
				<stop  offset="0.1122" style="stop-color:#FDCE1E"/>
				<stop  offset="0.3319" style="stop-color:#F7E6A4"/>
				<stop  offset="0.5563" style="stop-color:#C9961A"/>
				<stop  offset="0.7856" style="stop-color:#EACE76"/>
				<stop  offset="1" style="stop-color:#F7E6A4"/>
			</linearGradient>
			<path fill="url(#SVGID_4_)" d="M207.5,123.3c-8.7,7.6-17.2,15.5-26.1,22.8c-3,2.5-6.8,3.8-10.8,6c6.2-5.4,11.9-10.4,17.8-15.5
				c-7.7-6.3-11.1-14.4-14.1-22.9c-1.1-3.3-3-6.3-4.8-10c4,3.2,6.4,6.8,8.2,11c2.5,5.9,5.3,11.6,8.1,17.4c0.6,1.3,1.6,2.3,2.5,3.5
				c3.9-2.9,7.4-5.9,11.2-8.4C202,125.6,204.9,124.6,207.5,123.3C207.6,123.4,207.5,123.3,207.5,123.3z"/>
			<linearGradient id="SVGID_5_" gradientUnits="userSpaceOnUse" x1="248.322" y1="107.0814" x2="271.6857" y2="107.0814">
				<stop  offset="0.1122" style="stop-color:#FDCE1E"/>
				<stop  offset="0.3319" style="stop-color:#F7E6A4"/>
				<stop  offset="0.5563" style="stop-color:#C9961A"/>
				<stop  offset="0.7856" style="stop-color:#EACE76"/>
				<stop  offset="1" style="stop-color:#F7E6A4"/>
			</linearGradient>
			<path fill="url(#SVGID_5_)" d="M255.4,142.2c-5.2-6.7-7.5-14.1-7.1-22.4c0.5-9.5,4.2-18,9.8-25.5c5.2-6.9,10.6-13.7,12.6-22.4
				c0.3,0.1,0.6,0.2,0.9,0.3c-1.2,3.5-1.9,7.3-3.6,10.5c-2.7,5-6,9.7-9.1,14.5c-6.6,10.2-10.4,21.1-7.7,33.3
				C252.1,134.5,253.9,138.1,255.4,142.2z"/>
		</g>
		<g>
			<linearGradient id="SVGID_6_" gradientUnits="userSpaceOnUse" x1="284.5813" y1="82.0667" x2="369.9923" y2="82.0667">
				<stop  offset="0.1122" style="stop-color:#FDCE1E"/>
				<stop  offset="0.3319" style="stop-color:#F7E6A4"/>
				<stop  offset="0.5563" style="stop-color:#C9961A"/>
				<stop  offset="0.7856" style="stop-color:#EACE76"/>
				<stop  offset="1" style="stop-color:#F7E6A4"/>
			</linearGradient>
			<path fill="url(#SVGID_6_)" d="M315.4,77.7c4.7-3.6,9.9-5.7,15.5-6.8c5.8-1.2,11.7-1.9,17.5-2.7c7.7-1,14.9-3.3,20.8-8.6
				c0.4-0.4,0.6-0.9,0.8-1.6c-9.6,7-20.9,6.5-32.3,7.7c1.6-12.7-7.1-21.2-12.2-31.2c0.3,1.6,0.3,3.2,0.9,4.7
				c1.5,3.9,3.3,7.7,4.9,11.6c1.7,4.2,3.4,8.4,5,12.6c0.6,1.7,0.4,2.8-1.8,3.2c-7.2,1.6-13.7,4.8-19.4,9.9
				c-5.3-8.7-10.4-17.2-15.9-26.3c4.5-1.8,8.6-3.6,12.8-5.2c4.4-1.7,8.2-4.2,11.2-7.9c0.7-0.8,1.2-1.8,1.6-3
				c-7.5,6.9-18.6,7.5-26.3,15.4c-4.5-10.2-8.9-20.1-13.3-30c-0.2,0.1-0.4,0.1-0.6,0.2c2.9,7.9,5.3,16.1,9,23.7
				c5.4,11.2,11.7,21.9,17.4,32.9c6.2,11.8,10.9,24.2,12.1,37.7c1,11.8-1.9,22.1-11.6,29.8c0.2,0.2,0.3,0.4,0.5,0.6
				c2.2-1.9,4.7-3.5,6.6-5.7c6.3-7,8-15.5,7.7-24.6c-0.5-11.9-4.5-22.8-9.4-33.4C316.4,79.7,315.9,78.8,315.4,77.7z"/>
			<linearGradient id="SVGID_7_" gradientUnits="userSpaceOnUse" x1="283.8374" y1="177.3614" x2="393.5752" y2="177.3614">
				<stop  offset="0.1122" style="stop-color:#FDCE1E"/>
				<stop  offset="0.3319" style="stop-color:#F7E6A4"/>
				<stop  offset="0.5563" style="stop-color:#C9961A"/>
				<stop  offset="0.7856" style="stop-color:#EACE76"/>
				<stop  offset="1" style="stop-color:#F7E6A4"/>
			</linearGradient>
			<path fill="url(#SVGID_7_)" d="M283.8,203.3c4.7-7.2,11-12.7,18.2-17.5c3.8,4.6,9,6,14.5,7c3.9,0.8,7.8,1.8,12,2.8
				c0.3-8.3,6.5-15.1,5.3-23.9c4.5,0,8.8,0.6,12.8-0.2c5.4-0.9,11-2.3,16-4.5c10.5-4.7,20.8-10.1,31-15.6c-2.2,0.7-4.5,1.2-6.6,2.1
				c-8.3,3.5-16.5,7.1-24.8,10.7c-11,4.8-22.2,6.7-34,3.3c-8.4-2.5-15.4-7.4-21.4-13.7c-0.5-0.5-0.7-1.3-1.1-1.9l-0.6,0.6
				c0.8,3,1.9,6,2.4,9.1c1.7,10.3-2.8,17.9-10.6,24.1c-4.9,3.9-9,8.6-11.8,14.3C284.6,201.1,284.3,202.2,283.8,203.3z M302.1,185.6
				c8.5-8.4,10.7-17.4,6.5-28.2c0.8,0.6,1,0.7,1.2,0.9c6,6.2,13.1,10.7,21.6,12.7c1.4,0.3,1.6,1,1.2,2.2c-1.2,3.2-2.7,6.3-3.5,9.6
				c-1,3.8-1.5,7.7-2.2,11.6c-3.9-3.5-9.3-4.3-14.6-5.5C309.1,188.1,306,186.9,302.1,185.6z"/>
			<linearGradient id="SVGID_8_" gradientUnits="userSpaceOnUse" x1="307.9293" y1="105.7879" x2="396.3098" y2="105.7879">
				<stop  offset="0.1122" style="stop-color:#FDCE1E"/>
				<stop  offset="0.3319" style="stop-color:#F7E6A4"/>
				<stop  offset="0.5563" style="stop-color:#C9961A"/>
				<stop  offset="0.7856" style="stop-color:#EACE76"/>
				<stop  offset="1" style="stop-color:#F7E6A4"/>
			</linearGradient>
			<path fill="url(#SVGID_8_)" d="M359.3,123.4c1.1-2.7,2.2-5.3,3.2-8.1c2.3-6.3,3.5-12.9,3.2-20c10.4,2.7,19.7,8.3,30.5,8.1
				c-0.1-0.3-0.1-0.6-0.2-0.6c-9.5-3-18.6-7.5-28.8-8.2c-1.9-0.1-1.7-1.4-1.6-2.6c0.9-8.8,1.8-17.5,2.7-26.3c0.2-1.5,0.5-3,0.8-4.5
				c-0.3-0.1-0.5-0.1-0.8-0.2c-1.4,6.1-3.1,12.2-4.2,18.4c-0.8,5-1.2,10-1.3,15.1c-0.6,25.6-16,45.8-40.5,52.9
				c-4.7,1.3-9.5,2-14.5,3.1c10,0.4,19.3-1.5,28.1-5.8c9.1-4.5,16.3-11,21.7-19.5C358.2,124.4,358.8,123.9,359.3,123.4L359.3,123.4z
				"/>
			<linearGradient id="SVGID_9_" gradientUnits="userSpaceOnUse" x1="359.3442" y1="127.9216" x2="397.3586" y2="127.9216">
				<stop  offset="0.1122" style="stop-color:#FDCE1E"/>
				<stop  offset="0.3319" style="stop-color:#F7E6A4"/>
				<stop  offset="0.5563" style="stop-color:#C9961A"/>
				<stop  offset="0.7856" style="stop-color:#EACE76"/>
				<stop  offset="1" style="stop-color:#F7E6A4"/>
			</linearGradient>
			<path fill="url(#SVGID_9_)" d="M359.4,123.3c8.7,7.6,17.2,15.5,26.1,22.8c3,2.5,6.8,3.8,10.8,6c-6.2-5.4-11.9-10.4-17.8-15.5
				c7.7-6.3,11.1-14.4,14.1-22.9c1.1-3.3,3-6.3,4.8-10c-4,3.2-6.4,6.8-8.2,11c-2.5,5.9-5.3,11.6-8.1,17.4c-0.6,1.3-1.6,2.3-2.5,3.5
				c-3.9-2.9-7.4-5.9-11.2-8.4C364.9,125.6,362,124.6,359.4,123.3C359.3,123.4,359.4,123.3,359.4,123.3z"/>
			<linearGradient id="SVGID_10_" gradientUnits="userSpaceOnUse" x1="295.2451" y1="107.0814" x2="318.6089" y2="107.0814">
				<stop  offset="0.1122" style="stop-color:#FDCE1E"/>
				<stop  offset="0.3319" style="stop-color:#F7E6A4"/>
				<stop  offset="0.5563" style="stop-color:#C9961A"/>
				<stop  offset="0.7856" style="stop-color:#EACE76"/>
				<stop  offset="1" style="stop-color:#F7E6A4"/>
			</linearGradient>
			<path fill="url(#SVGID_10_)" d="M311.5,142.2c5.2-6.7,7.5-14.1,7.1-22.4c-0.5-9.5-4.2-18-9.8-25.5c-5.2-6.9-10.6-13.7-12.6-22.4
				c-0.3,0.1-0.6,0.2-0.9,0.3c1.2,3.5,1.9,7.3,3.6,10.5c2.7,5,6,9.7,9.1,14.5c6.6,10.2,10.4,21.1,7.7,33.3
				C314.8,134.5,313,138.1,311.5,142.2z"/>
		</g>
	</g>

</g>
</svg>
